<?xml version="1.0" standalone="no"?>
<!DOCTYPE svg PUBLIC "-//W3C//DTD SVG 20010904//EN"
 "http://www.w3.org/TR/2001/REC-SVG-20010904/DTD/svg10.dtd">
<svg version="1.0" xmlns="http://www.w3.org/2000/svg"
 width="500.000000pt" height="157.000000pt" viewBox="0 0 500.000000 157.000000"
 preserveAspectRatio="xMidYMid meet">

<g transform="translate(0.000000,157.000000) scale(0.100000,-0.100000)"
fill="#000000" stroke="none">
<path d="M270 702 l0 -418 104 -12 c63 -7 130 -21 172 -38 93 -35 266 -94 278
-94 25 0 -37 46 -109 80 -113 53 -170 70 -287 83 l-103 12 -3 403 -2 402 -25
0 -25 0 0 -418z"/>
<path d="M1680 717 l0 -403 -110 -11 c-84 -9 -132 -21 -203 -49 -110 -43 -173
-78 -186 -103 -8 -14 20 -7 142 36 196 71 229 79 326 88 l81 7 0 419 0 419
-25 0 -25 0 0 -403z"/>
<path d="M2590 845 c0 -41 -3 -75 -7 -75 -5 1 -19 7 -33 15 -39 22 -111 19
-150 -7 -58 -40 -75 -72 -75 -143 0 -71 17 -103 75 -143 42 -28 112 -30 158
-2 32 20 32 20 32 0 0 -17 7 -20 40 -20 l40 0 0 225 0 225 -40 0 -40 0 0 -75z
m-33 -139 c23 -20 28 -32 28 -71 0 -39 -5 -51 -28 -71 -16 -13 -41 -24 -57
-24 -16 0 -41 11 -57 24 -23 20 -28 32 -28 71 0 39 5 51 28 71 16 13 41 24 57
24 16 0 41 -11 57 -24z"/>
<path d="M1940 685 l0 -215 165 0 165 0 0 40 0 40 -120 0 -120 0 0 50 0 50
100 0 100 0 0 35 0 34 -97 3 -98 3 -3 48 -3 47 115 0 116 0 0 40 0 40 -160 0
-160 0 0 -215z"/>
<path d="M2756 818 c20 -46 61 -143 92 -215 l56 -133 47 0 46 0 86 199 c48
109 90 206 93 215 6 15 0 17 -40 14 l-47 -3 -66 -153 c-36 -84 -67 -151 -69
-150 -1 2 -32 71 -67 153 l-64 150 -51 3 -52 3 36 -83z"/>
<path d="M3260 784 c-44 -19 -43 -17 -28 -48 9 -21 17 -26 32 -21 12 4 42 9
69 12 52 6 87 -13 87 -47 0 -15 -12 -18 -74 -22 -98 -5 -130 -26 -134 -89 -4
-62 27 -91 104 -97 46 -4 61 -1 85 17 29 21 29 21 29 1 0 -17 6 -20 40 -20
l40 0 0 124 c0 136 -9 159 -70 191 -37 19 -135 19 -180 -1z m160 -196 c0 -35
-29 -58 -71 -58 -28 0 -41 5 -49 19 -13 25 -13 27 6 45 10 10 33 16 65 16 44
0 49 -2 49 -22z"/>
<path d="M3610 635 l0 -165 45 0 45 0 0 105 c0 124 12 145 79 145 60 0 71 -22
71 -147 l0 -103 45 0 45 0 0 110 c0 161 -26 209 -119 218 -38 3 -60 -1 -91
-17 -39 -20 -40 -20 -40 -1 0 17 -7 20 -40 20 l-40 0 0 -165z"/>
<path d="M4105 786 c-16 -8 -43 -28 -60 -45 -28 -30 -30 -38 -30 -106 0 -68 2
-76 30 -106 17 -17 44 -38 62 -45 71 -31 176 -8 211 44 13 20 12 22 -21 38
-33 16 -37 16 -52 0 -24 -24 -61 -30 -96 -16 -36 15 -49 37 -49 85 0 48 13 70
49 85 35 14 72 8 96 -16 15 -16 19 -16 52 0 33 16 34 18 21 38 -35 52 -144 75
-213 44z"/>
<path d="M4470 789 c-33 -13 -68 -47 -86 -81 -22 -42 -18 -119 9 -159 45 -68
160 -99 241 -65 46 19 52 33 26 61 -21 22 -25 23 -44 10 -50 -36 -156 -1 -156
51 0 2 57 4 126 4 l127 0 -6 46 c-5 49 -27 85 -70 118 -31 23 -128 32 -167 15z
m101 -59 c14 0 49 -39 49 -55 0 -12 -16 -15 -80 -15 -80 0 -86 3 -74 35 8 20
63 46 82 40 8 -3 18 -5 23 -5z"/>
</g>
</svg>
